<svg id="圖層_1" data-name="圖層 1" xmlns="http://www.w3.org/2000/svg" viewBox="0 0 148.6 284.89"><path d="M127,423.84c-4.86-5.78-8.84-10.64-13-15.39-12.11-14-24.45-27.74-38.08-40.28-2.39-2.2-2.42-3.64-.43-6.15,10.68-13.44,21.31-27,26.3-43.82,7-23.62,13-47.46,15.79-72,2.94-25.46,6.51-50.84,9.9-76.25,1.23-9.23,2.73-18.43,4.06-27.66.38-2.57,1.29-3.84,4.28-3.07,22.46,5.83,45.45,6.22,68.44,6.55,5,.07,10,.24,15,.26,2.91,0,4.32.38,2.77,3.93-14.23,32.62-27.57,65.58-45.92,96.32-19.9,33.32-31.42,70-39.18,107.85a498,498,0,0,0-9.21,65.71C127.66,420.75,127.39,421.68,127,423.84Z" transform="translate(-74.08 -138.96)"/></svg>