<svg id="圖層_1" data-name="圖層 1" xmlns="http://www.w3.org/2000/svg" viewBox="0 0 1157.6 721.41"><path d="M73.2,159.1c-1,18.5,1.25,44,3.43,69.62a614.29,614.29,0,0,1,2.06,71.41,362.78,362.78,0,0,0,1.16,38.45c.3,4.07-.49,5.35-5.14,4.81-23.49-2.72-47-4.81-70.55-7.43-20.19-2.25-40.32-5-60.48-7.4-8.93-1.06-17.87-2.13-26.84-2.58-4.42-.23-5.91-2.09-6.83-6-7.52-32.18-11.76-64.85-14.83-97.69-2.62-28-6.56-55.9-9.44-83.89a205.29,205.29,0,0,1,.72-48.85c.61-4.41,3.09-4.33,6.26-4.2,34,1.36,67.87,3.52,101.76,6,24.41,1.83,48.82,3.86,73.25,5.39,4.7.3,5.72,2,5.9,6.17C74.33,119.25,74.06,135.57,73.2,159.1Z" transform="translate(578.73 15.52)"/><path d="M493.54,208.46c-1.7,46.82-5.7,92.15-6.94,137.62-.34,12.49-.64,25,.09,37.48.15,2.54.07,4.33-3.07,5.15-22.82,5.92-44,16.21-65.58,25.32-19.19,8.1-38.41,16.09-59.15,19.37a69.14,69.14,0,0,1-24.84-.25c-2.82-.58-3.38-1.32-1.41-3.77,18.38-22.93,28.9-49.21,32.94-78.17A231.3,231.3,0,0,0,368,319.35c0-31.66-.21-63.31-.22-95,0-37.79-8.7-73.55-24.68-107.65-2.54-5.43-4.66-11.07-7.48-16.33-2.39-4.46-.74-5.11,3.42-5.49,27.53-2.52,55.06-5.08,82.55-8a61.55,61.55,0,0,1,21.73,1.44c16.14,4,24.11,16.17,29.36,30.17,7.83,20.87,13.3,42.52,19.25,64C494.45,191.43,493,200.71,493.54,208.46Z" transform="translate(578.73 15.52)"/><path d="M-130.59,324.24c-39.46-1.8-77.42,6.18-114.83,17.85a279.37,279.37,0,0,1-48.72,10.59c-1,.12-2,0-3,.22-4.07.77-4.89-1-4.85-4.87.29-29.14,9.12-55.89,21.61-81.84a590.28,590.28,0,0,1,37-66.7c13.31-20.46,22.2-43.21,30-66.2,3.64-10.67,8.59-18.16,19.72-22.56,13.7-5.42,26-14.17,39.8-19.6,8.1-3.18,16.38-5.56,25.16-5.87,2.71-.1,4.1.47,3.63,3.59-4.64,30.42.36,60.42,3.94,90.5,3.21,27,5.8,54,8.93,80.91a524.51,524.51,0,0,0,10.49,59.95c.88,3.74-.14,4.17-3.45,4.09C-113.6,324.1-122.1,324.24-130.59,324.24Z" transform="translate(578.73 15.52)"/><path d="M-128.61,335c6.87-.3,17.16.69,27.48,1.08,2,.07,3.41.42,4.34,2.51C-85,365-69.48,389.67-59.6,417c4.41,12.21,8.66,24.43,11.85,37,1.14,4.49.29,5.78-4.41,5.9q-48.7,1.33-97.22,5.89c-8.78.83-17.55,1.92-26.23,3.46-17.64,3.14-31.51,12.83-43.19,26-1.38,1.55-2.13,3.74-5,1.54-19.16-14.68-39.05-28.45-55.12-46.8a322.55,322.55,0,0,1-25.24-32.86,8.67,8.67,0,0,1-1.69-5.59q1.41-21.69,2.72-43.38c.12-2.05.44-3.37,3-3.53,29.71-1.86,57.62-11.72,86-19.48C-187.27,337.9-159.84,335.2-128.61,335Z" transform="translate(578.73 15.52)"/><path d="M-495.49,11c11.95,25.53,31.22,44.24,53.35,60.67C-453,43.48-462.9,15.25-454.75-15.52c3.26,9.88,6.3,19.71,11,28.94,11.3,22.22,27.05,41.08,44.26,58.85a7.22,7.22,0,0,0,4.74,2.47c8.63.71,16.54,3.76,24,7.89,2.91,1.61,5,1.21,7.73-.51,13.35-8.49,25.85-18.25,39.56-26.19,5.62-3.26,11.22-6.57,17.52-8.38,1.88-.54,4-1.14,5.65.56s.95,3.73.31,5.63a17.82,17.82,0,0,1-1.55,3.67c-5.46,8.73-8.31,18.45-11,28.26-2,7.13-4.79,13.87-10.74,18.78-.5.41-1.36,1-1.31,1.4,2.11,14.68-3.2,28.93-2.4,43.56a82.19,82.19,0,0,1-1.25,19.94c-2.21.07-3.14-1.79-4.49-2.87-17.57-14-50.09-16.67-68.5-5.41-10.1,6.18-17,15.35-22.77,25.42-8.45,14.72-14.57,30.64-23.14,45.31a17.18,17.18,0,0,0-1.33,3.22c-2.1,6.23-2.07,6.16-8.71,4.13-13.44-4.1-26.68-2.48-39.79,1.6-18.45,5.75-34.9,15.58-51.41,25.27-4.59,2.7-9.24,5.31-13.77,8.11-2.23,1.37-3.43.92-4.75-1.3-5-8.49-9.55-17.13-11.3-27-1.79-10.08.88-18.75,7.49-26.38,1.68-1.94,3.67-3.59,6.19-4,8.82-1.43,14.77-7.18,20.58-13.24,17.08-17.84,31.68-37.76,47.65-56.53,11.45-13.46,23.11-26.73,36.33-38.49,2.86-2.53,2.53-4.06.33-6.86-14.69-18.73-27.1-38.77-33.68-61.89C-495.84,29.5-497.79,20.41-495.49,11Z" transform="translate(578.73 15.52)"/><path d="M356.78,275.87c.27,24.67.4,49.33-2.75,73.87-3.43,26.71-13.13,50.8-29.94,71.91-5,6.31-6,6.38-13.22,2.32-12.82-7.2-24.21-16.47-36.15-25-17.76-12.62-37.25-21.87-57.8-28.86-4.33-1.48-5.91-3.34-6-8-.83-48,1.17-96,.13-144-.22-9.95-.17-9.72,9.91-10.1,25.82-1,51.63-1.91,77.44.07,17.27,1.32,34.52,2.92,51.79,4.25,4.27.33,5.71,2.06,5.86,6.51C356.67,237.88,357,256.87,356.78,275.87Z" transform="translate(578.73 15.52)"/><path d="M89.1,98.53c31.22,2.08,62.26,4.78,93.41,5.77,2.31.08,3.94.34,4.63,3.25,3.85,16.23,6.18,32.71,8.55,49.19.38,2.64-1,3-3.09,3.29-13.4,1.58-26.81,3.07-40.17,4.92-10.56,1.46-21,3.73-30.77,8.21a30.63,30.63,0,0,0-4,2.11c-4.59,3-8.87,6.4-8.27,12.62.57,5.92,5.07,8.79,10,10.79,12.79,5.21,26.33,7,39.95,8.35a334.27,334.27,0,0,0,35,1.31c4,0,5.14,1.5,5.21,5.25.56,31.66.61,63.31-.24,95-.45,17-.36,34,.36,51,.17,3.94-.78,5-4.75,3.9-31.58-8.54-63.8-13.56-96.22-17.49-7.2-.88-6.91-.91-7.47-7.86-2-24.3-.27-48.64-1.07-72.95-.72-22.16-2.53-44.23-4.49-66.31-1.74-19.61-.5-39.3-.46-58.95,0-12.5,0-25-.1-37.49C85,99.29,85.48,97.24,89.1,98.53Z" transform="translate(578.73 15.52)"/><path d="M398.77,497.25c-.6,5.83.94,10.27,1.72,14.77,1,5.91,1.88,11.81,2.55,17.78,1.87,16.75-5.19,29.94-16.59,41.07-5.92,5.78-14.24,7-22.2,8-7.63.94-15.3.57-23,.11-3.82-.23-5.48-1.47-5.29-5.71.91-19.85-1.16-39.26-9.94-57.47-7.76-16.1-19.16-29.56-31.08-42.63-7.21-7.89-7.2-7.78,1.55-14.32,6.8-5.09,13.46-10.36,20.2-15.54,1.54-1.18,2.85-2.61,5.3-1.68,21.76,8.25,43,3.7,64.06-3,25-7.91,48.41-19.62,72.64-29.38a243,243,0,0,1,25.45-8.83c2.78-.77,4-.28,4.91,2.84,4.42,15.43,5.1,31.19,4.65,47.05-.69,24.57.8,48.92,6,73,2.32,10.81,3.09,21.69-.34,32.6-2.86,9.1-8.42,14-18,15.32-15.07,2.05-29.91.11-44.83-1.35-3-.3-2.65-2.59-2.88-4.4a103.45,103.45,0,0,0-12.76-38.63C414.92,516.42,407.6,507,398.77,497.25Z" transform="translate(578.73 15.52)"/><path d="M86.09,425.29c.84-21.7,4.12-43.17,5.18-64.78.27-5.45,4-3.44,6.47-3.11,16.81,2.31,33.65,4.36,50.35,7.48,25.88,4.83,51.41,10.81,76.18,19.94,21.53,7.94,40.26,20.44,58.32,34.21a161.37,161.37,0,0,0,21.63,14.32c3.47,1.86,2.88,3.07.11,5.09Q287.2,451,270.27,463.78a23.52,23.52,0,0,1-11,4.23c-13.15,2.1-26.29,4.2-39.32,7-6.06,1.29-11,4.51-16.18,7.54-3.42,2-6.4,1.93-9.7-.39-24.78-17.47-53-24.11-82.7-26.06-7.14-.46-14.31-.71-21.46-.77-3.06,0-4-1-3.92-4.05C86.22,442.6,86.09,433.94,86.09,425.29Z" transform="translate(578.73 15.52)"/><path d="M-17.67,577.23c-15.47-1.15-30.87-2.77-46.26-4.46-2.82-.31-3.81-1.54-4.3-4.33-2.58-14.45-6.31-28.59-12.86-41.84a91.93,91.93,0,0,0-11.83-17.86c-2-2.43-3.74-2.92-6.78-1.51-13.1,6.08-20.15,15.54-19.43,30.59.44,9.34,1.31,18.58,2.56,27.83.82,6.11,1.31,12.24-1.17,18.22a8,8,0,0,1-7,5.39,170.9,170.9,0,0,1-56.18-1.33c-3.73-.72-3.66-3.07-3.92-5.77-1.87-19.87-6.3-39.07-15.3-57a71.29,71.29,0,0,0-10.29-15.29c-1.89-2.14-2.22-3.72-.34-6,10.38-12.41,23-21.41,39.24-23.7,51.07-7.17,102.57-8.06,154-10.15,2.5-.11,4.42-.15,4.58,3.41,1.21,26.4,7.39,52,12.22,77.87a176.61,176.61,0,0,1,3,21.24c.22,3.44-1,4.87-4.49,4.75C-7.34,577.1-12.5,577.23-17.67,577.23Z" transform="translate(578.73 15.52)"/><path d="M-317.76,395.91c-2.79-3.29-5.66-6.67-8.52-10.06-13.12-15.53-26.67-30.67-41.6-44.49-2.59-2.4-2.56-3.88-.47-6.53,10.12-12.81,20.4-25.62,25.4-41.51,7.54-24,13.44-48.36,16.45-73.41,3.4-28.25,7.28-56.45,11-84.66.89-6.77,2.09-13.49,3.1-20.23.36-2.37,1.24-3.6,4-2.89,24.6,6.39,49.79,6.31,74.93,6.67,2.84,0,5.67.29,8.5.16,4.1-.2,4.16,1.29,2.75,4.65-14.94,35.42-30.92,70.25-50,103.77-20.36,35.76-30.91,75.22-37.84,115.64a483.55,483.55,0,0,0-6.22,50C-316.36,394-316.21,395.08-317.76,395.91Z" transform="translate(578.73 15.52)"/><path d="M80.28,359.69c-3.75,31.7-4.92,61.15-5.65,90.62-.1,4.12-1.32,5.56-5.74,5.83-33.07,2.05-66.21,1.25-99.28,2.85-2.61.13-4.58.29-5.37-3.3-7-31.93-19.68-61.71-35-90.46-4.14-7.78-7.92-15.75-12-23.56-1.68-3.23-1.38-4.44,2.63-4,16.86,2,33.77,3.67,50.61,5.81,25.76,3.27,51.55,6.23,77.42,8.59,8.62.79,17.2,2.12,25.83,2.59C79,355,81.12,356.85,80.28,359.69Z" transform="translate(578.73 15.52)"/><path d="M575.08,559.39c-2.21-2.88-3.53-6.25-6.23-9.08-1.42,5.69-1.42,5.69,10,25.69-4.27-.68-7.3-3.39-10.86-4.8-1.5-.59-3.22-2-4.65-.88-1.68,1.36-.49,3.48,0,5.11,1,3,2.39,5.86,3.41,8.84a19.67,19.67,0,0,1-4.31,20.19c-.28-7.89-1.57-15.09-7.94-21.41-.27,6.54.87,12.21-.18,18.69a13.75,13.75,0,0,1-3-6.51c-2.58-10.51-7.48-19.87-13.66-28.66-9.09-12.91-10.5-26.46-2.48-40.33,6.74-11.65,8.52-23.95,8.27-37.35q-1.69-89-6.52-177.79c-1.44-26.27-2.26-52.59-4.79-78.8-.85-8.75-3.16-16.64-10.17-22.55-1.52-1.28-2.68-3-4.22-4.25C509.87,199.14,506.4,190.77,504,181c-5.24-21.63-11.85-42.92-18.75-64.1-.49-1.53-.85-3.1-1.41-5.18a9.87,9.87,0,0,1,2.33.84C508,129.92,526.46,150,534.82,177.42c5.4,17.76,7.67,36.12,9,54.58,6.56,89.12,7.08,178.42,7.93,267.71,0,3.79-.17,7.09,4.66,8.48,2.91.85,4.46,3.95,5.51,6.8a99,99,0,0,0,9.16,18.79C576.08,541.61,576,550.4,575.08,559.39Z" transform="translate(578.73 15.52)"/><path d="M-387.24,260.79c-10.48-.4-24.12-1.05-37.22-5.57-1.1-.38-2.21-.73-3.28-1.18-11-4.75-13.29-10.5-7.21-20.75,8.26-13.92,13.7-29.26,22.1-43.08,5.71-9.4,12.29-18.24,23.09-21.91,17.54-6,34.22-2.89,49.56,7.1,6.08,4,8.9,10,9,17.47.15,14.65,1,29.3-2.78,43.72-3.93,15-11.5,21.73-27.09,23.39A204.19,204.19,0,0,1-387.24,260.79Z" transform="translate(578.73 15.52)"/><path d="M314.84,96.85c5.35-2.14,7.62,2,10,7.22,6,13.38,11.89,26.76,17.12,40.45,1.37,3.6,1.47,5.28-3.31,5.32-36.17.29-72.24,2.62-108.24,6.15-6.13.6-12.27,1.22-18.38,2-3.16.39-4.76-.18-5.18-3.92a401.69,401.69,0,0,0-7.62-45.3c-.5-2.18-1.56-4.55,2.57-4.7C239.07,102.67,276.3,100.2,314.84,96.85Z" transform="translate(578.73 15.52)"/><path d="M121.5,186.53c9-5.82,18.44-8,27.95-9.39,32.15-4.66,64.46-7.93,96.79-11,31.53-3,63.15-4.44,94.81-5.07,5-.1,7.35,1.09,8.45,6.33,1.94,9.3,3.91,18.56,4.74,28,.54,6.1.62,6-5.67,5.36-13.59-1.29-27.2-2.45-40.8-3.62-28.95-2.48-57.92-1.83-86.91-.74-27.82,1-55.66,1.24-83.15-4.31C132.37,191,127,189.94,121.5,186.53Z" transform="translate(578.73 15.52)"/><path d="M-465.19,310.08c-6.39-.39-13.51.58-20.63,1.24a40.91,40.91,0,0,0-12.8,3.85c-12.7,5.64-25.57,5.25-38.16-.63a17.74,17.74,0,0,1-7.41-6.55c-4.23-6.58-8.37-13.21-12.59-19.79-1-1.53-1.78-2.89.39-4.11,19.71-11,38.43-24,60.06-31.37,11.19-3.81,22.52-5.82,34.31-2.84,15.28,3.87,23,15,21.32,30.73-1,9.22-4.2,17.75-7.92,26.15-1.21,2.75-2.94,3.57-5.78,3.37C-457.72,309.9-461.06,310.08-465.19,310.08Z" transform="translate(578.73 15.52)"/><path d="M-66,594.75c.11-10.69.1-10.62,10.68-9.46,16,1.75,32.11,3.28,48.26,3.63,1.08,0,2.5-.54,3.14.8.51,1.07-.5,1.82-1.11,2.56-22,27.1-35.49,58.48-44.37,91.83-3.4,12.78-10.76,18.55-23.15,20.06a176.63,176.63,0,0,1-27.37,1.66c-5.71-.19-6.92-1.87-4.64-7.17a110,110,0,0,1,15.76-25.37c7.17-8.87,7.68-19.94,11.94-29.7A124.61,124.61,0,0,0-66,594.75Z" transform="translate(578.73 15.52)"/><path d="M480.59,583c-9.91,15.62-12.79,32.4-16,49-2.36,12.25-3.86,24.66-5.86,37a68.78,68.78,0,0,1-5.85,18.49c-2.71,5.73-7.17,8.83-13.07,10.63-9.38,2.87-19.11,2.4-28.69,3.43-3.35.36-5-1.61-4.31-5a66.3,66.3,0,0,1,1.83-6.73c8.52-27.31,17.28-54.55,23-82.64a101.24,101.24,0,0,0,2.51-21.8c-.05-2.63.58-4,3.66-3.74C451.69,583,465.52,585.08,480.59,583Z" transform="translate(578.73 15.52)"/><path d="M-131.84,602.17a2.32,2.32,0,0,1-.62,2.55c-15.89,22.6-26,47.79-33.7,74.14-1.15,4-2.77,7.84-3.88,11.84-1.75,6.29-6,9.66-12.07,11.35-12.16,3.39-24.57,4.22-37.1,3.71-4.55-.19-5.57-1.85-3.93-6.22,2.66-7.07,7.2-13.09,11.22-19.39,2.87-4.49,5.86-8.89,8.79-13.33a26.36,26.36,0,0,0,4.55-12.42c.58-6,3.76-11.31,5.92-16.88a122.44,122.44,0,0,0,8-34.38c.17-2-.26-4.56,3.45-3.76,15.58,3.4,31.35,3.79,47.2,2.58A11,11,0,0,1-131.84,602.17Z" transform="translate(578.73 15.52)"/><path d="M321.24,694.39c-2.32.2-4.64.43-7,.58-5.62.38-7.1-1.28-5.5-6.73,2.59-8.77,5.51-17.43,8.11-26.19,6.76-22.79,14-45.46,17.72-69,.4-2.54,1.36-3.4,3.9-3a98.73,98.73,0,0,0,33.77-.75c2.32-.47,3.19.21,2.36,2.58-8.21,23.58-10.48,48.36-14.68,72.75a57.24,57.24,0,0,1-1.57,6.29c-4.67,16.41-11.22,21.78-28.17,23.08-3,.23-6,.38-9,.56Z" transform="translate(578.73 15.52)"/><path d="M-343.56,267.13c-6.26,17.53-13.59,33.24-23.83,47.48-3.3,4.59-6.9,9-10.27,13.51-1.35,1.83-2.66,2.41-4.46.71-14.16-13.32-32-16.1-50.31-17.4-4.8-.35-4.85-1.74-3.22-5.7,4.83-11.78,8.4-23.88,6-36.87-.45-2.53.36-2.87,2.63-2.18,19.07,5.85,38.68,6,58.36,5.46A70.78,70.78,0,0,0-343.56,267.13Z" transform="translate(578.73 15.52)"/></svg>