<svg id="圖層_1" data-name="圖層 1" xmlns="http://www.w3.org/2000/svg" viewBox="0 0 117.31 70.74"><path d="M178.81,308.08c-6.39-.39-13.51.58-20.63,1.24a40.91,40.91,0,0,0-12.8,3.85c-12.7,5.64-25.57,5.25-38.16-.63A17.8,17.8,0,0,1,99.81,306c-4.23-6.58-8.37-13.21-12.58-19.79-1-1.52-1.8-2.89.37-4.11,19.72-11,38.43-24,60.06-31.37,11.2-3.81,22.53-5.82,34.32-2.84,15.28,3.86,23.05,15,21.32,30.73-1,9.22-4.2,17.74-7.91,26.15-1.22,2.75-2.95,3.57-5.79,3.37C186.28,307.9,182.94,308.08,178.81,308.08Z" transform="translate(-86.23 -246.44)"/></svg>