<svg id="圖層_1" data-name="圖層 1" xmlns="http://www.w3.org/2000/svg" viewBox="0 0 162.11 347.86"><path d="M102.27,294c-.19-20-.33-40-1-60-1-33.59-10.45-64.89-24.13-95.18-2.6-5.77-5.09-11.58-7.88-17.25-1.57-3.18-1.06-4.3,2.62-4.62,21.23-1.86,42.46-3.9,63.68-5.91,6.8-.65,13.58-1.42,20.37-2.13,28.74-3,42.34,9.39,50.86,31.84C214.69,161.48,220,183,226,204.32c2.24,8,1.64,16.24,1.46,24.35-.73,33.14-3.45,66.2-5.16,99.3-1.32,25.62-2.7,51.26-1.55,76.92.17,3.67-.7,5.21-4.38,6.18-22.45,6-43.3,16.12-64.6,25.1-19,8-38.11,15.93-58.68,19.2a70.81,70.81,0,0,1-24.85-.18c-3.32-.64-3.32-1.6-1.35-4.07,16.65-20.88,27-44.63,31.6-70.85,3.18-17.94,3.85-36.08,3.82-54.25C102.25,315.35,102.27,304.69,102.27,294Z" transform="translate(-65.51 -108.52)"/></svg>