<svg id="圖層_1" data-name="圖層 1" xmlns="http://www.w3.org/2000/svg" viewBox="0 0 195.44 258.23"><path d="M241.85,354.62a411,411,0,0,0,1,48.79c.41,4.51-.75,5.48-5.47,4.94-23.82-2.74-47.72-4.81-71.55-7.46-19.86-2.22-39.65-5-59.48-7.38-8.43-1-16.88-2.15-25.34-2.47-5.09-.19-7.05-1.89-8.2-6.89C66.11,355,62,325.55,59.07,295.88,56,264.38,51.89,233,48.54,201.55a186.66,186.66,0,0,1,.92-46.86c.54-3.7,2.15-4.6,5.59-4.41,26.11,1.49,52.25,2.57,78.34,4.31,32.57,2.18,65.11,4.95,97.67,7.22,4,.28,5.36,1.42,5.54,5.45.74,16.66.62,33.32-.21,50-1.51,30.24,2.16,60.23,4.12,90.3C241.44,321.82,241.92,336.13,241.85,354.62Z" transform="translate(-47.49 -150.26)"/></svg>