<svg id="圖層_1" data-name="圖層 1" xmlns="http://www.w3.org/2000/svg" viewBox="0 0 200.59 267.8"><path d="M218.5,386.21c-39.46-1.78-77.43,6.19-114.84,17.86a279.39,279.39,0,0,1-48.72,10.6c-1.16.14-2.34.06-3.49.25-3.5.59-4.55-.74-4.43-4.31.76-22.51,4.69-44.27,13.9-65C73.3,317.77,86.45,290.39,103.47,265c14.44-21.57,23.87-45.68,32.35-70,3.55-10.19,8.13-17.68,19-21.93,13.88-5.41,26.26-14.32,40.25-19.81,8.11-3.18,16.38-5.58,25.16-5.89,2.6-.1,4.2.28,3.71,3.49-4.61,30.26.29,60.09,3.87,90,3.24,27.1,5.84,54.28,9,81.4a521,521,0,0,0,10.38,59.46c.92,3.88.36,4.85-3.75,4.68C235.16,386,226.82,386.21,218.5,386.21Z" transform="translate(-47.01 -147.25)"/></svg>