<svg id="圖層_1" data-name="圖層 1" xmlns="http://www.w3.org/2000/svg" viewBox="0 0 258.55 162.74"><path d="M17.5,250.81c.33-4.67.92-12.14,1.37-19.62.12-2.1.54-3.33,3.05-3.49,28.53-1.75,55.43-10.87,82.64-18.54,34.36-9.69,69.4-11.69,104.89-11,11.15.23,16.65,3.86,21.16,14.16,10,22.82,23.23,44.16,31.81,67.71,4.44,12.2,8.64,24.44,11.85,37.05,1.16,4.58.12,5.73-4.48,5.85q-48.71,1.35-97.22,5.9c-8.78.82-17.56,1.91-26.23,3.46-17.64,3.16-31.51,12.84-43.16,26-1.41,1.6-2.22,3.67-5,1.47C82.06,347.2,65,335.79,50.61,321A291.71,291.71,0,0,1,18.08,280.6a10.51,10.51,0,0,1-1.89-7C16.66,266.93,17,260.27,17.5,250.81Z" transform="translate(-16.16 -198.06)"/></svg>