<svg id="圖層_1" data-name="圖層 1" xmlns="http://www.w3.org/2000/svg" viewBox="0 0 211.91 179.28"><path d="M149.82,289.31c-.72,5.72.88,10.14,1.65,14.61,1,5.91,1.89,11.82,2.56,17.78,1.89,16.74-5.13,29.93-16.5,41.11-5.8,5.69-13.92,7-21.69,8-8,1.05-16,.64-24,.15-3.78-.23-5-1.73-4.88-5.59.79-19-1-37.57-8.89-55.2C70.41,293,58.48,279,46,265.24c-7.24-8-7.26-7.87,1.41-14.34,6.8-5.09,13.46-10.37,20.21-15.53,1.53-1.17,2.82-2.71,5.28-1.78,22.12,8.36,43.63,3.6,65-3.24,24.62-7.89,47.77-19.44,71.7-29a250,250,0,0,1,25-8.71c3.13-.89,4.55-.61,5.59,3.07,4.36,15.45,5,31.21,4.53,47.07-.67,24.4.81,48.58,5.95,72.52,2.29,10.63,3.07,21.35-.13,32.12-2.83,9.54-8.56,14.66-18.6,15.95-14.91,1.92-29.58,0-44.33-1.4-3.36-.33-2.81-2.91-3-4.81C181.43,330.62,168,309.37,149.82,289.31Z" transform="translate(-40.76 -192.18)"/></svg>