<svg id="圖層_1" data-name="圖層 1" xmlns="http://www.w3.org/2000/svg" viewBox="0 0 214.39 121"><path d="M201.33,221c10.49,0,21,0,31.47,0,2.37,0,4.08.06,4.23,3.27,1.24,26.57,7.43,52.36,12.31,78.36,1.26,6.71,2.37,13.43,3,20.25.37,4.24-1.22,5.48-5.32,5.45a493.43,493.43,0,0,1-55.28-4c-9.26-1.14-9-1.46-11-10.58-4.17-19.16-10-37.64-22.86-53.11-2.74-3.29-4.88-3.66-8.76-1.79-12.87,6.19-18.87,15.92-18.23,30.33.4,9.17,1.3,18.25,2.52,27.33.87,6.45,1.42,12.92-1.48,19.15a7.14,7.14,0,0,1-6,4.51,168.56,168.56,0,0,1-57.16-1.28c-3.51-.69-3.35-3-3.57-5.53a170.63,170.63,0,0,0-11.12-48,83,83,0,0,0-14.73-24.77c-2.1-2.38-1.58-4,.1-6C50,242.15,62.8,233.41,79.3,231c35.5-5.12,71.29-6.56,107.06-8.2,5-.23,10-.55,15-.82Z" transform="translate(-37.97 -220.98)"/></svg>