<svg id="圖層_1" data-name="圖層 1" xmlns="http://www.w3.org/2000/svg" viewBox="0 0 115.05 265.55"><path d="M92.21,347.71c.73-34.63-1.45-67.2-4.55-99.73-.79-8.27-.75-16.64-.81-25-.14-23.83,1.14-47.65.21-71.48-.14-3.62,1-4.47,4.53-4.19,30.89,2.5,61.78,4.89,92.76,5.91,3,.1,4.28,1,5,4.11,3.7,15.92,6,32.07,8.33,48.21.44,3-1.23,3.23-3.42,3.49-13.23,1.56-26.47,3.08-39.67,4.85A114.06,114.06,0,0,0,127,220.74a49.63,49.63,0,0,0-8,4c-4.34,2.77-8.1,6.23-7.61,12s4.66,8.64,9.41,10.67c12.56,5.37,25.95,7.16,39.38,8.54a301.89,301.89,0,0,0,35.45,1.38c4.29-.06,5.81,1.2,5.92,5.61.54,22.33.3,44.66.19,67-.13,26.31-1.45,52.63-.12,78.95.2,3.91-1.06,4.54-4.59,3.59-31.91-8.61-64.45-13.76-97.22-17.52-4.82-.55-6.64-2-6.71-7.2C92.93,373.76,91.52,359.79,92.21,347.71Z" transform="translate(-86.84 -147.3)"/></svg>