<svg id="圖層_1" data-name="圖層 1" xmlns="http://www.w3.org/2000/svg" viewBox="0 0 220.66 127.19"><path d="M43,217.11c25.42,3,50.11,6.64,74.52,12,26.55,5.82,52.6,13.19,76.94,25.7,10,5.12,19,11.66,28,18.27,9.79,7.2,19.45,14.59,30.11,20.49,2.66,1.48,3,2.53.36,4.48-12.36,9-24.61,18.23-36.95,27.29-4.41,3.24-9.88,2.58-14.87,3.58-8.48,1.71-17.06,2.92-25.58,4.43s-16.44,4.06-23.54,9.07c-3.2,2.26-6.33,2.17-9.67-.18C117.17,324.53,88.6,317.89,58.57,316c-6.65-.41-13.32-.81-20-.69-3.9.07-4.68-1.31-4.56-4.93.92-26.62,1.79-53.25,4.59-79.77.33-3.14.58-6.31.62-9.47S39.91,216.08,43,217.11Z" transform="translate(-34.03 -216.84)"/></svg>