<svg id="圖層_1" data-name="圖層 1" xmlns="http://www.w3.org/2000/svg" viewBox="0 0 146.19 219.83"><path d="M218.77,239.07c.3,24.67.41,49.33-2.76,73.87-3.45,26.7-13.2,50.78-30,71.87-4.92,6.17-5.81,6.22-12.82,2.31C160.29,380,148.86,370.73,137,362.19c-17.72-12.72-37.23-21.93-57.76-29-4.48-1.54-6.21-3.37-6.3-8.28-.79-47.84,1.18-95.66.16-143.49-.23-10.25-.18-10,10.1-10.4,25.82-1,51.63-1.9,77.44.08,17.27,1.32,34.52,2.92,51.79,4.28,4,.32,5.51,1.83,5.65,6.16C218.67,200.74,219,219.9,218.77,239.07Z" transform="translate(-72.72 -169.97)"/></svg>